<?xml version="1.0" encoding="UTF-8" standalone="no"?>
<!-- Created with Inkscape (http://www.inkscape.org/) -->

<svg
   width="210mm"
   height="63.160271mm"
   viewBox="0 0 210 63.160271"
   version="1.1"
   id="svg1"
   sodipodi:docname="chapter_bg_v3.svg"
   inkscape:version="1.4 (86a8ad7, 2024-10-11)"
   xmlns:inkscape="http://www.inkscape.org/namespaces/inkscape"
   xmlns:sodipodi="http://sodipodi.sourceforge.net/DTD/sodipodi-0.dtd"
   xmlns="http://www.w3.org/2000/svg"
   xmlns:svg="http://www.w3.org/2000/svg">
  <sodipodi:namedview
     id="namedview1"
     pagecolor="#505050"
     bordercolor="#eeeeee"
     borderopacity="1"
     inkscape:showpageshadow="0"
     inkscape:pageopacity="0"
     inkscape:pagecheckerboard="0"
     inkscape:deskcolor="#505050"
     inkscape:document-units="mm"
     inkscape:zoom="1.0859498"
     inkscape:cx="422.67147"
     inkscape:cy="125.69642"
     inkscape:window-width="2560"
     inkscape:window-height="1377"
     inkscape:window-x="-8"
     inkscape:window-y="-8"
     inkscape:window-maximized="1"
     inkscape:current-layer="layer1" />
  <defs
     id="defs1" />
  <g
     inkscape:label="Layer 1"
     inkscape:groupmode="layer"
     id="layer1">
    <path
       id="path1"
       style="display:none;opacity:0.531213;fill:#ffffff;fill-opacity:1;stroke:none;stroke-width:0.72;paint-order:fill markers stroke"
       inkscape:transform-center-x="1.81749e-06"
       inkscape:transform-center-y="9.6640943"
       transform="matrix(3.0573218,0,0,0.98546801,105,20.118333)"
       d="m 34.343783,43.676647 -68.687566,-64.09165 h 68.687566 z"
       sodipodi:nodetypes="cccc"
       sodipodi:insensitive="true" />
    <path
       sodipodi:type="star"
       style="opacity:0.92;fill:#2a2a2a;fill-opacity:1;stroke:#f0b423;stroke-width:2.2;stroke-dasharray:none;stroke-opacity:1;paint-order:fill markers stroke"
       id="path2"
       inkscape:flatsided="true"
       sodipodi:sides="6"
       sodipodi:cx="80.645615"
       sodipodi:cy="75.529121"
       sodipodi:r1="19.555239"
       sodipodi:r2="16.935333"
       sodipodi:arg1="0.53614602"
       sodipodi:arg2="1.0597448"
       inkscape:rounded="0.012608012"
       inkscape:randomized="0"
       d="m 97.456936,85.518457 c -0.125946,0.211958 -16.810146,9.567457 -17.056679,9.564364 -0.246534,-0.0031 -16.690734,-9.774285 -16.811322,-9.989336 -0.120587,-0.215051 0.119412,-19.341742 0.245358,-19.5537 0.125946,-0.211957 16.810146,-9.567456 17.05668,-9.564363 0.246533,0.0031 16.690733,9.774285 16.811321,9.989336 0.120588,0.215051 -0.119412,19.341742 -0.245358,19.553699 z"
       transform="matrix(0.69068668,0,0,0.69068668,118.69764,-24.610622)" />
    <path
       sodipodi:type="star"
       style="opacity:0.92;fill:#2a2a2a;fill-opacity:1;stroke:#f0b423;stroke-width:2.2;stroke-dasharray:none;stroke-opacity:1;paint-order:fill markers stroke"
       id="path2-8"
       inkscape:flatsided="true"
       sodipodi:sides="6"
       sodipodi:cx="80.645615"
       sodipodi:cy="75.529121"
       sodipodi:r1="19.555239"
       sodipodi:r2="16.935333"
       sodipodi:arg1="0.53614602"
       sodipodi:arg2="1.0597448"
       inkscape:rounded="0.012608012"
       inkscape:randomized="0"
       d="m 97.456936,85.518457 c -0.125946,0.211958 -16.810146,9.567457 -17.056679,9.564364 -0.246534,-0.0031 -16.690734,-9.774285 -16.811322,-9.989336 -0.120587,-0.215051 0.119412,-19.341742 0.245358,-19.5537 0.125946,-0.211957 16.810146,-9.567456 17.05668,-9.564363 0.246533,0.0031 16.690733,9.774285 16.811321,9.989336 0.120588,0.215051 -0.119412,19.341742 -0.245358,19.553699 z"
       transform="matrix(0.69068668,0,0,0.69068668,132.20524,-47.384124)" />
    <path
       sodipodi:type="star"
       style="opacity:0.92;fill:#2a2a2a;fill-opacity:1;stroke:#f0b423;stroke-width:2.2;stroke-dasharray:none;stroke-opacity:1;paint-order:fill markers stroke"
       id="path2-5"
       inkscape:flatsided="true"
       sodipodi:sides="6"
       sodipodi:cx="80.645615"
       sodipodi:cy="75.529121"
       sodipodi:r1="19.555239"
       sodipodi:r2="16.935333"
       sodipodi:arg1="0.53614602"
       sodipodi:arg2="1.0597448"
       inkscape:rounded="0.012608012"
       inkscape:randomized="0"
       d="m 97.456936,85.518457 c -0.125946,0.211958 -16.810146,9.567457 -17.056679,9.564364 -0.246534,-0.0031 -16.690734,-9.774285 -16.811322,-9.989336 -0.120587,-0.215051 0.119412,-19.341742 0.245358,-19.5537 0.125946,-0.211957 16.810146,-9.567456 17.05668,-9.564363 0.246533,0.0031 16.690733,9.774285 16.811321,9.989336 0.120588,0.215051 -0.119412,19.341742 -0.245358,19.553699 z"
       transform="matrix(0.69068668,0,0,0.69068668,145.79828,-24.610622)" />
    <path
       sodipodi:type="star"
       style="opacity:0.92;fill:#2a2a2a;fill-opacity:1;stroke:#f0b423;stroke-width:2.2;stroke-dasharray:none;stroke-opacity:1;paint-order:fill markers stroke"
       id="path2-1"
       inkscape:flatsided="true"
       sodipodi:sides="6"
       sodipodi:cx="80.645615"
       sodipodi:cy="75.529121"
       sodipodi:r1="19.555239"
       sodipodi:r2="16.935333"
       sodipodi:arg1="0.53614602"
       sodipodi:arg2="1.0597448"
       inkscape:rounded="0.012608012"
       inkscape:randomized="0"
       d="m 97.456936,85.518457 c -0.125946,0.211958 -16.810146,9.567457 -17.056679,9.564364 -0.246534,-0.0031 -16.690734,-9.774285 -16.811322,-9.989336 -0.120587,-0.215051 0.119412,-19.341742 0.245358,-19.5537 0.125946,-0.211957 16.810146,-9.567456 17.05668,-9.564363 0.246533,0.0031 16.690733,9.774285 16.811321,9.989336 0.120588,0.215051 -0.119412,19.341742 -0.245358,19.553699 z"
       transform="matrix(0.69068668,0,0,0.69068668,105.10993,-47.384124)" />
    <path
       sodipodi:type="star"
       style="opacity:0.92;fill:#2a2a2a;fill-opacity:1;stroke:#f0b423;stroke-width:2.2;stroke-dasharray:none;stroke-opacity:1;paint-order:fill markers stroke"
       id="path2-7"
       inkscape:flatsided="true"
       sodipodi:sides="6"
       sodipodi:cx="80.645615"
       sodipodi:cy="75.529121"
       sodipodi:r1="19.555239"
       sodipodi:r2="16.935333"
       sodipodi:arg1="0.53614602"
       sodipodi:arg2="1.0597448"
       inkscape:rounded="0.012608012"
       inkscape:randomized="0"
       d="m 97.456936,85.518457 c -0.125946,0.211958 -16.810146,9.567457 -17.056679,9.564364 -0.246534,-0.0031 -16.690734,-9.774285 -16.811322,-9.989336 -0.120587,-0.215051 0.119412,-19.341742 0.245358,-19.5537 0.125946,-0.211957 16.810146,-9.567456 17.05668,-9.564363 0.246533,0.0031 16.690733,9.774285 16.811321,9.989336 0.120588,0.215051 -0.119412,19.341742 -0.245358,19.553699 z"
       transform="matrix(0.69068668,0,0,0.69068668,91.596952,-24.610622)" />
    <path
       sodipodi:type="star"
       style="opacity:0.92;fill:#2a2a2a;fill-opacity:1;stroke:#f0b423;stroke-width:2.2;stroke-dasharray:none;stroke-opacity:1;paint-order:fill markers stroke"
       id="path2-2"
       inkscape:flatsided="true"
       sodipodi:sides="6"
       sodipodi:cx="80.645615"
       sodipodi:cy="75.529121"
       sodipodi:r1="19.555239"
       sodipodi:r2="16.935333"
       sodipodi:arg1="0.53614602"
       sodipodi:arg2="1.0597448"
       inkscape:rounded="0.012608012"
       inkscape:randomized="0"
       d="m 97.456936,85.518457 c -0.125946,0.211958 -16.810146,9.567457 -17.056679,9.564364 -0.246534,-0.0031 -16.690734,-9.774285 -16.811322,-9.989336 -0.120587,-0.215051 0.119412,-19.341742 0.245358,-19.5537 0.125946,-0.211957 16.810146,-9.567456 17.05668,-9.564363 0.246533,0.0031 16.690733,9.774285 16.811321,9.989336 0.120588,0.215051 -0.119412,19.341742 -0.245358,19.553699 z"
       transform="matrix(0.69068668,0,0,0.69068668,78.014597,-47.384124)" />
    <path
       sodipodi:type="star"
       style="opacity:0.92;fill:#2a2a2a;fill-opacity:1;stroke:#f0b423;stroke-width:2.2;stroke-dasharray:none;stroke-opacity:1;paint-order:fill markers stroke"
       id="path2-16"
       inkscape:flatsided="true"
       sodipodi:sides="6"
       sodipodi:cx="80.645615"
       sodipodi:cy="75.529121"
       sodipodi:r1="19.555239"
       sodipodi:r2="16.935333"
       sodipodi:arg1="0.53614602"
       sodipodi:arg2="1.0597448"
       inkscape:rounded="0.012608012"
       inkscape:randomized="0"
       d="m 97.456936,85.518457 c -0.125946,0.211958 -16.810146,9.567457 -17.056679,9.564364 -0.246534,-0.0031 -16.690734,-9.774285 -16.811322,-9.989336 -0.120587,-0.215051 0.119412,-19.341742 0.245358,-19.5537 0.125946,-0.211957 16.810146,-9.567456 17.05668,-9.564363 0.246533,0.0031 16.690733,9.774285 16.811321,9.989336 0.120588,0.215051 -0.119412,19.341742 -0.245358,19.553699 z"
       transform="matrix(0.69068668,0,0,0.69068668,64.496308,-24.610622)" />
    <path
       sodipodi:type="star"
       style="opacity:0.92;fill:#2a2a2a;fill-opacity:1;stroke:#f0b423;stroke-width:2.2;stroke-dasharray:none;stroke-opacity:1;paint-order:fill markers stroke"
       id="path2-6"
       inkscape:flatsided="true"
       sodipodi:sides="6"
       sodipodi:cx="80.645615"
       sodipodi:cy="75.529121"
       sodipodi:r1="19.555239"
       sodipodi:r2="16.935333"
       sodipodi:arg1="0.53614602"
       sodipodi:arg2="1.0597448"
       inkscape:rounded="0.012608012"
       inkscape:randomized="0"
       d="m 97.456936,85.518457 c -0.125946,0.211958 -16.810146,9.567457 -17.056679,9.564364 -0.246534,-0.0031 -16.690734,-9.774285 -16.811322,-9.989336 -0.120587,-0.215051 0.119412,-19.341742 0.245358,-19.5537 0.125946,-0.211957 16.810146,-9.567456 17.05668,-9.564363 0.246533,0.0031 16.690733,9.774285 16.811321,9.989336 0.120588,0.215051 -0.119412,19.341742 -0.245358,19.553699 z"
       transform="matrix(0.69068668,0,0,0.69068668,50.919295,-47.384124)" />
    <path
       sodipodi:type="star"
       style="opacity:0.92;fill:#2a2a2a;fill-opacity:1;stroke:#f0b423;stroke-width:2.2;stroke-dasharray:none;stroke-opacity:1;paint-order:fill markers stroke"
       id="path2-27"
       inkscape:flatsided="true"
       sodipodi:sides="6"
       sodipodi:cx="80.645615"
       sodipodi:cy="75.529121"
       sodipodi:r1="19.555239"
       sodipodi:r2="16.935333"
       sodipodi:arg1="0.53614602"
       sodipodi:arg2="1.0597448"
       inkscape:rounded="0.012608012"
       inkscape:randomized="0"
       d="m 97.456936,85.518457 c -0.125946,0.211958 -16.810146,9.567457 -17.056679,9.564364 -0.246534,-0.0031 -16.690734,-9.774285 -16.811322,-9.989336 -0.120587,-0.215051 0.119412,-19.341742 0.245358,-19.5537 0.125946,-0.211957 16.810146,-9.567456 17.05668,-9.564363 0.246533,0.0031 16.690733,9.774285 16.811321,9.989336 0.120588,0.215051 -0.119412,19.341742 -0.245358,19.553699 z"
       transform="matrix(0.69068668,0,0,0.69068668,159.30054,-47.384124)" />
    <path
       sodipodi:type="star"
       style="opacity:0.92;fill:#2a2a2a;fill-opacity:1;stroke:#f0b423;stroke-width:2.2;stroke-dasharray:none;stroke-opacity:1;paint-order:fill markers stroke"
       id="path2-3"
       inkscape:flatsided="true"
       sodipodi:sides="6"
       sodipodi:cx="80.645615"
       sodipodi:cy="75.529121"
       sodipodi:r1="19.555239"
       sodipodi:r2="16.935333"
       sodipodi:arg1="0.53614602"
       sodipodi:arg2="1.0597448"
       inkscape:rounded="0.012608012"
       inkscape:randomized="0"
       d="m 97.456936,85.518457 c -0.125946,0.211958 -16.810146,9.567457 -17.056679,9.564364 -0.246534,-0.0031 -16.690734,-9.774285 -16.811322,-9.989336 -0.120587,-0.215051 0.119412,-19.341742 0.245358,-19.5537 0.125946,-0.211957 16.810146,-9.567456 17.05668,-9.564363 0.246533,0.0031 16.690733,9.774285 16.811321,9.989336 0.120588,0.215051 -0.119412,19.341742 -0.245358,19.553699 z"
       transform="matrix(0.69068668,0,0,0.69068668,23.823994,-47.384124)" />
    <path
       sodipodi:type="star"
       style="opacity:0.92;fill:#2a2a2a;fill-opacity:1;stroke:#f0b423;stroke-width:2.2;stroke-dasharray:none;stroke-opacity:1;paint-order:fill markers stroke"
       id="path2-88"
       inkscape:flatsided="true"
       sodipodi:sides="6"
       sodipodi:cx="80.645615"
       sodipodi:cy="75.529121"
       sodipodi:r1="19.555239"
       sodipodi:r2="16.935333"
       sodipodi:arg1="0.53614602"
       sodipodi:arg2="1.0597448"
       inkscape:rounded="0.012608012"
       inkscape:randomized="0"
       d="m 97.456936,85.518457 c -0.125946,0.211958 -16.810146,9.567457 -17.056679,9.564364 -0.246534,-0.0031 -16.690734,-9.774285 -16.811322,-9.989336 -0.120587,-0.215051 0.119412,-19.341742 0.245358,-19.5537 0.125946,-0.211957 16.810146,-9.567456 17.05668,-9.564363 0.246533,0.0031 16.690733,9.774285 16.811321,9.989336 0.120588,0.215051 -0.119412,19.341742 -0.245358,19.553699 z"
       transform="matrix(0.69068668,0,0,0.69068668,-3.2766499,-47.384124)" />
    <path
       sodipodi:type="star"
       style="opacity:0.92;fill:#2a2a2a;fill-opacity:1;stroke:#f0b423;stroke-width:2.2;stroke-dasharray:none;stroke-opacity:1;paint-order:fill markers stroke"
       id="path2-8-2"
       inkscape:flatsided="true"
       sodipodi:sides="6"
       sodipodi:cx="80.645615"
       sodipodi:cy="75.529121"
       sodipodi:r1="19.555239"
       sodipodi:r2="16.935333"
       sodipodi:arg1="0.53614602"
       sodipodi:arg2="1.0597448"
       inkscape:rounded="0.012608012"
       inkscape:randomized="0"
       d="m 97.456936,85.518457 c -0.125946,0.211958 -16.810146,9.567457 -17.056679,9.564364 -0.246534,-0.0031 -16.690734,-9.774285 -16.811322,-9.989336 -0.120587,-0.215051 0.119412,-19.341742 0.245358,-19.5537 0.125946,-0.211957 16.810146,-9.567456 17.05668,-9.564363 0.246533,0.0031 16.690733,9.774285 16.811321,9.989336 0.120588,0.215051 -0.119412,19.341742 -0.245358,19.553699 z"
       transform="matrix(0.69068668,0,0,0.69068668,158.93044,-1.2153552)" />
    <path
       sodipodi:type="star"
       style="opacity:0.92;fill:#2a2a2a;fill-opacity:1;stroke:#f0b423;stroke-width:2.2;stroke-dasharray:none;stroke-opacity:1;paint-order:fill markers stroke"
       id="path2-1-5"
       inkscape:flatsided="true"
       sodipodi:sides="6"
       sodipodi:cx="80.645615"
       sodipodi:cy="75.529121"
       sodipodi:r1="19.555239"
       sodipodi:r2="16.935333"
       sodipodi:arg1="0.53614602"
       sodipodi:arg2="1.0597448"
       inkscape:rounded="0.012608012"
       inkscape:randomized="0"
       d="m 97.456936,85.518457 c -0.125946,0.211958 -16.810146,9.567457 -17.056679,9.564364 -0.246534,-0.0031 -16.690734,-9.774285 -16.811322,-9.989336 -0.120587,-0.215051 0.119412,-19.341742 0.245358,-19.5537 0.125946,-0.211957 16.810146,-9.567456 17.05668,-9.564363 0.246533,0.0031 16.690733,9.774285 16.811321,9.989336 0.120588,0.215051 -0.119412,19.341742 -0.245358,19.553699 z"
       transform="matrix(0.69068668,0,0,0.69068668,131.83514,-1.2153552)" />
    <path
       sodipodi:type="star"
       style="opacity:0.92;fill:#2a2a2a;fill-opacity:1;stroke:#f0b423;stroke-width:2.2;stroke-dasharray:none;stroke-opacity:1;paint-order:fill markers stroke"
       id="path2-8-2-5"
       inkscape:flatsided="true"
       sodipodi:sides="6"
       sodipodi:cx="80.645615"
       sodipodi:cy="75.529121"
       sodipodi:r1="19.555239"
       sodipodi:r2="16.935333"
       sodipodi:arg1="0.53614602"
       sodipodi:arg2="1.0597448"
       inkscape:rounded="0.012608012"
       inkscape:randomized="0"
       d="m 97.456936,85.518457 c -0.125946,0.211958 -16.810146,9.567457 -17.056679,9.564364 -0.246534,-0.0031 -16.690734,-9.774285 -16.811322,-9.989336 -0.120587,-0.215051 0.119412,-19.341742 0.245358,-19.5537 0.125946,-0.211957 16.810146,-9.567456 17.05668,-9.564363 0.246533,0.0031 16.690733,9.774285 16.811321,9.989336 0.120588,0.215051 -0.119412,19.341742 -0.245358,19.553699 z"
       transform="matrix(0.69068668,0,0,0.69068668,145.79828,21.94072)" />
    <path
       sodipodi:type="star"
       style="opacity:0.92;fill:#2a2a2a;fill-opacity:1;stroke:#f0b423;stroke-width:2.2;stroke-dasharray:none;stroke-opacity:1;paint-order:fill markers stroke"
       id="path2-7-5"
       inkscape:flatsided="true"
       sodipodi:sides="6"
       sodipodi:cx="80.645615"
       sodipodi:cy="75.529121"
       sodipodi:r1="19.555239"
       sodipodi:r2="16.935333"
       sodipodi:arg1="0.53614602"
       sodipodi:arg2="1.0597448"
       inkscape:rounded="0.012608012"
       inkscape:randomized="0"
       d="m 97.456936,85.518457 c -0.125946,0.211958 -16.810146,9.567457 -17.056679,9.564364 -0.246534,-0.0031 -16.690734,-9.774285 -16.811322,-9.989336 -0.120587,-0.215051 0.119412,-19.341742 0.245358,-19.5537 0.125946,-0.211957 16.810146,-9.567456 17.05668,-9.564363 0.246533,0.0031 16.690733,9.774285 16.811321,9.989336 0.120588,0.215051 -0.119412,19.341742 -0.245358,19.553699 z"
       transform="matrix(0.69068668,0,0,0.69068668,-30.377286,-47.384124)" />
    <path
       sodipodi:type="star"
       style="opacity:0.92;fill:#2a2a2a;fill-opacity:1;stroke:#f0b423;stroke-width:2.2;stroke-dasharray:none;stroke-opacity:1;paint-order:fill markers stroke"
       id="path2-2-1"
       inkscape:flatsided="true"
       sodipodi:sides="6"
       sodipodi:cx="80.645615"
       sodipodi:cy="75.529121"
       sodipodi:r1="19.555239"
       sodipodi:r2="16.935333"
       sodipodi:arg1="0.53614602"
       sodipodi:arg2="1.0597448"
       inkscape:rounded="0.012608012"
       inkscape:randomized="0"
       d="m 97.456936,85.518457 c -0.125946,0.211958 -16.810146,9.567457 -17.056679,9.564364 -0.246534,-0.0031 -16.690734,-9.774285 -16.811322,-9.989336 -0.120587,-0.215051 0.119412,-19.341742 0.245358,-19.5537 0.125946,-0.211957 16.810146,-9.567456 17.05668,-9.564363 0.246533,0.0031 16.690733,9.774285 16.811321,9.989336 0.120588,0.215051 -0.119412,19.341742 -0.245358,19.553699 z"
       transform="matrix(0.69068668,0,0,0.69068668,104.73982,-1.2153552)" />
    <path
       sodipodi:type="star"
       style="opacity:0.92;fill:#2a2a2a;fill-opacity:1;stroke:#f0b423;stroke-width:2.2;stroke-dasharray:none;stroke-opacity:1;paint-order:fill markers stroke"
       id="path2-2-1-7"
       inkscape:flatsided="true"
       sodipodi:sides="6"
       sodipodi:cx="80.645615"
       sodipodi:cy="75.529121"
       sodipodi:r1="19.555239"
       sodipodi:r2="16.935333"
       sodipodi:arg1="0.53614602"
       sodipodi:arg2="1.0597448"
       inkscape:rounded="0.012608012"
       inkscape:randomized="0"
       d="m 97.456936,85.518457 c -0.125946,0.211958 -16.810146,9.567457 -17.056679,9.564364 -0.246534,-0.0031 -16.690734,-9.774285 -16.811322,-9.989336 -0.120587,-0.215051 0.119412,-19.341742 0.245358,-19.5537 0.125946,-0.211957 16.810146,-9.567456 17.05668,-9.564363 0.246533,0.0031 16.690733,9.774285 16.811321,9.989336 0.120588,0.215051 -0.119412,19.341742 -0.245358,19.553699 z"
       transform="matrix(0.69068668,0,0,0.69068668,77.6445,-1.2153552)" />
    <path
       sodipodi:type="star"
       style="opacity:0.92;fill:#2a2a2a;fill-opacity:1;stroke:#f0b423;stroke-width:2.2;stroke-dasharray:none;stroke-opacity:1;paint-order:fill markers stroke"
       id="path2-16-7"
       inkscape:flatsided="true"
       sodipodi:sides="6"
       sodipodi:cx="80.645615"
       sodipodi:cy="75.529121"
       sodipodi:r1="19.555239"
       sodipodi:r2="16.935333"
       sodipodi:arg1="0.53614602"
       sodipodi:arg2="1.0597448"
       inkscape:rounded="0.012608012"
       inkscape:randomized="0"
       d="m 97.456936,85.518457 c -0.125946,0.211958 -16.810146,9.567457 -17.056679,9.564364 -0.246534,-0.0031 -16.690734,-9.774285 -16.811322,-9.989336 -0.120587,-0.215051 0.119412,-19.341742 0.245358,-19.5537 0.125946,-0.211957 16.810146,-9.567456 17.05668,-9.564363 0.246533,0.0031 16.690733,9.774285 16.811321,9.989336 0.120588,0.215051 -0.119412,19.341742 -0.245358,19.553699 z"
       transform="matrix(0.69068668,0,0,0.69068668,-57.477939,-47.384124)" />
    <path
       sodipodi:type="star"
       style="opacity:0.92;fill:#2a2a2a;fill-opacity:1;stroke:#f0b423;stroke-width:2.2;stroke-dasharray:none;stroke-opacity:1;paint-order:fill markers stroke"
       id="path2-3-5"
       inkscape:flatsided="true"
       sodipodi:sides="6"
       sodipodi:cx="80.645615"
       sodipodi:cy="75.529121"
       sodipodi:r1="19.555239"
       sodipodi:r2="16.935333"
       sodipodi:arg1="0.53614602"
       sodipodi:arg2="1.0597448"
       inkscape:rounded="0.012608012"
       inkscape:randomized="0"
       d="m 97.456936,85.518457 c -0.125946,0.211958 -16.810146,9.567457 -17.056679,9.564364 -0.246534,-0.0031 -16.690734,-9.774285 -16.811322,-9.989336 -0.120587,-0.215051 0.119412,-19.341742 0.245358,-19.5537 0.125946,-0.211957 16.810146,-9.567456 17.05668,-9.564363 0.246533,0.0031 16.690733,9.774285 16.811321,9.989336 0.120588,0.215051 -0.119412,19.341742 -0.245358,19.553699 z"
       transform="matrix(0.69068668,0,0,0.69068668,37.401007,-24.610622)" />
    <path
       sodipodi:type="star"
       style="opacity:0.92;fill:#2a2a2a;fill-opacity:1;stroke:#f0b423;stroke-width:2.2;stroke-dasharray:none;stroke-opacity:1;paint-order:fill markers stroke"
       id="path2-3-5-4"
       inkscape:flatsided="true"
       sodipodi:sides="6"
       sodipodi:cx="80.645615"
       sodipodi:cy="75.529121"
       sodipodi:r1="19.555239"
       sodipodi:r2="16.935333"
       sodipodi:arg1="0.53614602"
       sodipodi:arg2="1.0597448"
       inkscape:rounded="0.012608012"
       inkscape:randomized="0"
       d="m 97.456936,85.518457 c -0.125946,0.211958 -16.810146,9.567457 -17.056679,9.564364 -0.246534,-0.0031 -16.690734,-9.774285 -16.811322,-9.989336 -0.120587,-0.215051 0.119412,-19.341742 0.245358,-19.5537 0.125946,-0.211957 16.810146,-9.567456 17.05668,-9.564363 0.246533,0.0031 16.690733,9.774285 16.811321,9.989336 0.120588,0.215051 -0.119412,19.341742 -0.245358,19.553699 z"
       transform="matrix(0.69068668,0,0,0.69068668,10.305702,-24.610622)" />
    <path
       id="path1-2"
       style="display:inline;opacity:0.75;fill:#ffffff;fill-opacity:1;stroke:none;stroke-width:1.24975;paint-order:fill markers stroke"
       inkscape:transform-center-x="1.81749e-06"
       inkscape:transform-center-y="9.6640943"
       d="M 210,63.160271 -3.9630622e-8,6.1944597e-7 H 210 Z"
       sodipodi:nodetypes="cccc" />
    <path
       id="path1-2-2"
       style="display:inline;opacity:0.92;fill:#2a2a2a;fill-opacity:1;stroke:none;stroke-width:1.39072;paint-order:fill markers stroke"
       inkscape:transform-center-x="3.8069014e-06"
       inkscape:transform-center-y="10.754163"
       d="M 0 0 L 0 2.7217977 L 210.0001 65.882284 L 210.0001 63.160486 L 0 0 z " />
  </g>
</svg>
