<?xml version="1.0" encoding="UTF-8" standalone="no"?>
<!-- Created with Inkscape (http://www.inkscape.org/) -->

<svg
   width="210mm"
   height="63.160271mm"
   viewBox="0 0 210 63.160271"
   version="1.1"
   id="svg1"
   sodipodi:docname="chapter_bg_v2.svg"
   inkscape:version="1.4 (86a8ad7, 2024-10-11)"
   xmlns:inkscape="http://www.inkscape.org/namespaces/inkscape"
   xmlns:sodipodi="http://sodipodi.sourceforge.net/DTD/sodipodi-0.dtd"
   xmlns="http://www.w3.org/2000/svg"
   xmlns:svg="http://www.w3.org/2000/svg">
  <sodipodi:namedview
     id="namedview1"
     pagecolor="#505050"
     bordercolor="#eeeeee"
     borderopacity="1"
     inkscape:showpageshadow="0"
     inkscape:pageopacity="0"
     inkscape:pagecheckerboard="0"
     inkscape:deskcolor="#505050"
     inkscape:document-units="mm"
     inkscape:zoom="1.0859498"
     inkscape:cx="428.1966"
     inkscape:cy="200.28551"
     inkscape:window-width="2560"
     inkscape:window-height="1377"
     inkscape:window-x="-8"
     inkscape:window-y="-8"
     inkscape:window-maximized="1"
     inkscape:current-layer="layer1" />
  <defs
     id="defs1">
    <clipPath
       clipPathUnits="userSpaceOnUse"
       id="clipPath12">
      <path
         id="path12"
         style="display:inline;opacity:0.531213;fill:#ffffff;fill-opacity:1;stroke:none;stroke-width:1.24975;paint-order:fill markers stroke"
         inkscape:transform-center-x="1.81749e-06"
         inkscape:transform-center-y="9.6640943"
         d="M 270.21348,124.67855 60.213486,61.518285 H 270.21348 Z"
         sodipodi:nodetypes="cccc"
         sodipodi:insensitive="true" />
    </clipPath>
    <clipPath
       clipPathUnits="userSpaceOnUse"
       id="clipPath13">
      <path
         id="path13"
         style="display:inline;opacity:0.531213;fill:#ffffff;fill-opacity:1;stroke:none;stroke-width:1.24975;paint-order:fill markers stroke"
         inkscape:transform-center-x="1.81749e-06"
         inkscape:transform-center-y="9.6640943"
         d="M 74.065921,124.67855 -135.93408,61.518285 H 74.065921 Z"
         sodipodi:nodetypes="cccc"
         sodipodi:insensitive="true" />
    </clipPath>
    <clipPath
       clipPathUnits="userSpaceOnUse"
       id="clipPath14">
      <path
         id="path14"
         style="display:inline;opacity:0.531213;fill:#ffffff;fill-opacity:1;stroke:none;stroke-width:1.24975;paint-order:fill markers stroke"
         inkscape:transform-center-x="1.81749e-06"
         inkscape:transform-center-y="9.6640943"
         d="M 230.98397,124.67855 20.983974,61.518285 H 230.98397 Z"
         sodipodi:nodetypes="cccc"
         sodipodi:insensitive="true" />
    </clipPath>
    <clipPath
       clipPathUnits="userSpaceOnUse"
       id="clipPath15">
      <path
         id="path15"
         style="display:inline;opacity:0.531213;fill:#ffffff;fill-opacity:1;stroke:none;stroke-width:1.24975;paint-order:fill markers stroke"
         inkscape:transform-center-x="1.81749e-06"
         inkscape:transform-center-y="9.6640943"
         d="M 211.3267,91.706293 1.3267057,28.546024 H 211.3267 Z"
         sodipodi:nodetypes="cccc"
         sodipodi:insensitive="true" />
    </clipPath>
    <clipPath
       clipPathUnits="userSpaceOnUse"
       id="clipPath16">
      <path
         id="path16"
         style="display:inline;opacity:0.531213;fill:#ffffff;fill-opacity:1;stroke:none;stroke-width:1.24975;paint-order:fill markers stroke"
         inkscape:transform-center-x="1.81749e-06"
         inkscape:transform-center-y="9.6640943"
         d="M 191.75446,124.67855 -18.245539,61.518285 H 191.75446 Z"
         sodipodi:nodetypes="cccc"
         sodipodi:insensitive="true" />
    </clipPath>
    <clipPath
       clipPathUnits="userSpaceOnUse"
       id="clipPath17">
      <path
         id="path17"
         style="display:inline;opacity:0.531213;fill:#ffffff;fill-opacity:1;stroke:none;stroke-width:1.24975;paint-order:fill markers stroke"
         inkscape:transform-center-x="1.81749e-06"
         inkscape:transform-center-y="9.6640943"
         d="M 172.08946,91.706293 -37.910541,28.546024 H 172.08946 Z"
         sodipodi:nodetypes="cccc"
         sodipodi:insensitive="true" />
    </clipPath>
    <clipPath
       clipPathUnits="userSpaceOnUse"
       id="clipPath18">
      <path
         id="path18"
         style="display:inline;opacity:0.531213;fill:#ffffff;fill-opacity:1;stroke:none;stroke-width:1.24975;paint-order:fill markers stroke"
         inkscape:transform-center-x="1.81749e-06"
         inkscape:transform-center-y="9.6640943"
         d="M 152.52495,124.67855 -57.475051,61.518285 H 152.52495 Z"
         sodipodi:nodetypes="cccc"
         sodipodi:insensitive="true" />
    </clipPath>
    <clipPath
       clipPathUnits="userSpaceOnUse"
       id="clipPath19">
      <path
         id="path19"
         style="display:inline;opacity:0.531213;fill:#ffffff;fill-opacity:1;stroke:none;stroke-width:1.24975;paint-order:fill markers stroke"
         inkscape:transform-center-x="1.81749e-06"
         inkscape:transform-center-y="9.6640943"
         d="M 93.614961,91.706293 -116.38504,28.546024 H 93.614961 Z"
         sodipodi:nodetypes="cccc"
         sodipodi:insensitive="true" />
    </clipPath>
    <clipPath
       clipPathUnits="userSpaceOnUse"
       id="clipPath20">
      <path
         id="path20"
         style="display:inline;opacity:0.531213;fill:#ffffff;fill-opacity:1;stroke:none;stroke-width:1.24975;paint-order:fill markers stroke"
         inkscape:transform-center-x="1.81749e-06"
         inkscape:transform-center-y="9.6640943"
         d="M 113.29543,124.67855 -96.704564,61.518285 H 113.29543 Z"
         sodipodi:nodetypes="cccc"
         sodipodi:insensitive="true" />
    </clipPath>
    <clipPath
       clipPathUnits="userSpaceOnUse"
       id="clipPath21">
      <path
         id="path21"
         style="display:inline;opacity:0.531213;fill:#ffffff;fill-opacity:1;stroke:none;stroke-width:1.24975;paint-order:fill markers stroke"
         inkscape:transform-center-x="1.81749e-06"
         inkscape:transform-center-y="9.6640943"
         d="M 132.85221,91.706293 -77.147789,28.546024 H 132.85221 Z"
         sodipodi:nodetypes="cccc"
         sodipodi:insensitive="true" />
    </clipPath>
  </defs>
  <g
     inkscape:label="Layer 1"
     inkscape:groupmode="layer"
     id="layer1">
    <path
       id="path1"
       style="display:none;opacity:0.531213;fill:#ffffff;fill-opacity:1;stroke:none;stroke-width:0.72;paint-order:fill markers stroke"
       inkscape:transform-center-x="1.81749e-06"
       inkscape:transform-center-y="9.6640943"
       transform="matrix(3.0573218,0,0,0.98546801,105,20.118333)"
       d="m 34.343783,43.676647 -68.687566,-64.09165 h 68.687566 z"
       sodipodi:nodetypes="cccc"
       sodipodi:insensitive="true" />
    <path
       sodipodi:type="star"
       style="opacity:0.531213;fill:#64a6ff;fill-opacity:1;stroke:#27488b;stroke-width:2.2;stroke-dasharray:none;stroke-opacity:1;paint-order:fill markers stroke"
       id="path2"
       inkscape:flatsided="true"
       sodipodi:sides="6"
       sodipodi:cx="80.645615"
       sodipodi:cy="75.529121"
       sodipodi:r1="19.555239"
       sodipodi:r2="16.935333"
       sodipodi:arg1="0.53614602"
       sodipodi:arg2="1.0597448"
       inkscape:rounded="0.012608012"
       inkscape:randomized="0"
       d="m 97.456936,85.518457 c -0.125946,0.211958 -16.810146,9.567457 -17.056679,9.564364 -0.246534,-0.0031 -16.690734,-9.774285 -16.811322,-9.989336 -0.120587,-0.215051 0.119412,-19.341742 0.245358,-19.5537 0.125946,-0.211957 16.810146,-9.567456 17.05668,-9.564363 0.246533,0.0031 16.690733,9.774285 16.811321,9.989336 0.120588,0.215051 -0.119412,19.341742 -0.245358,19.553699 z"
       transform="translate(77.147793,-28.546023)"
       clip-path="url(#clipPath21)" />
    <path
       sodipodi:type="star"
       style="opacity:0.531213;fill:#64a6ff;fill-opacity:1;stroke:#27488b;stroke-width:2.2;stroke-dasharray:none;stroke-opacity:1;paint-order:fill markers stroke"
       id="path2-8"
       inkscape:flatsided="true"
       sodipodi:sides="6"
       sodipodi:cx="80.645615"
       sodipodi:cy="75.529121"
       sodipodi:r1="19.555239"
       sodipodi:r2="16.935333"
       sodipodi:arg1="0.53614602"
       sodipodi:arg2="1.0597448"
       inkscape:rounded="0.012608012"
       inkscape:randomized="0"
       d="m 97.456936,85.518457 c -0.125946,0.211958 -16.810146,9.567457 -17.056679,9.564364 -0.246534,-0.0031 -16.690734,-9.774285 -16.811322,-9.989336 -0.120587,-0.215051 0.119412,-19.341742 0.245358,-19.5537 0.125946,-0.211957 16.810146,-9.567456 17.05668,-9.564363 0.246533,0.0031 16.690733,9.774285 16.811321,9.989336 0.120588,0.215051 -0.119412,19.341742 -0.245358,19.553699 z"
       transform="translate(96.704568,-61.518284)"
       clip-path="url(#clipPath20)" />
    <path
       sodipodi:type="star"
       style="opacity:0.531213;fill:#64a6ff;fill-opacity:1;stroke:#27488b;stroke-width:2.2;stroke-dasharray:none;stroke-opacity:1;paint-order:fill markers stroke"
       id="path2-5"
       inkscape:flatsided="true"
       sodipodi:sides="6"
       sodipodi:cx="80.645615"
       sodipodi:cy="75.529121"
       sodipodi:r1="19.555239"
       sodipodi:r2="16.935333"
       sodipodi:arg1="0.53614602"
       sodipodi:arg2="1.0597448"
       inkscape:rounded="0.012608012"
       inkscape:randomized="0"
       d="m 97.456936,85.518457 c -0.125946,0.211958 -16.810146,9.567457 -17.056679,9.564364 -0.246534,-0.0031 -16.690734,-9.774285 -16.811322,-9.989336 -0.120587,-0.215051 0.119412,-19.341742 0.245358,-19.5537 0.125946,-0.211957 16.810146,-9.567456 17.05668,-9.564363 0.246533,0.0031 16.690733,9.774285 16.811321,9.989336 0.120588,0.215051 -0.119412,19.341742 -0.245358,19.553699 z"
       transform="translate(116.38504,-28.546023)"
       clip-path="url(#clipPath19)" />
    <path
       sodipodi:type="star"
       style="opacity:0.531213;fill:#64a6ff;fill-opacity:1;stroke:#27488b;stroke-width:2.2;stroke-dasharray:none;stroke-opacity:1;paint-order:fill markers stroke"
       id="path2-1"
       inkscape:flatsided="true"
       sodipodi:sides="6"
       sodipodi:cx="80.645615"
       sodipodi:cy="75.529121"
       sodipodi:r1="19.555239"
       sodipodi:r2="16.935333"
       sodipodi:arg1="0.53614602"
       sodipodi:arg2="1.0597448"
       inkscape:rounded="0.012608012"
       inkscape:randomized="0"
       d="m 97.456936,85.518457 c -0.125946,0.211958 -16.810146,9.567457 -17.056679,9.564364 -0.246534,-0.0031 -16.690734,-9.774285 -16.811322,-9.989336 -0.120587,-0.215051 0.119412,-19.341742 0.245358,-19.5537 0.125946,-0.211957 16.810146,-9.567456 17.05668,-9.564363 0.246533,0.0031 16.690733,9.774285 16.811321,9.989336 0.120588,0.215051 -0.119412,19.341742 -0.245358,19.553699 z"
       transform="translate(57.475055,-61.518284)"
       clip-path="url(#clipPath18)" />
    <path
       sodipodi:type="star"
       style="opacity:0.531213;fill:#64a6ff;fill-opacity:1;stroke:#27488b;stroke-width:2.2;stroke-dasharray:none;stroke-opacity:1;paint-order:fill markers stroke"
       id="path2-7"
       inkscape:flatsided="true"
       sodipodi:sides="6"
       sodipodi:cx="80.645615"
       sodipodi:cy="75.529121"
       sodipodi:r1="19.555239"
       sodipodi:r2="16.935333"
       sodipodi:arg1="0.53614602"
       sodipodi:arg2="1.0597448"
       inkscape:rounded="0.012608012"
       inkscape:randomized="0"
       d="m 97.456936,85.518457 c -0.125946,0.211958 -16.810146,9.567457 -17.056679,9.564364 -0.246534,-0.0031 -16.690734,-9.774285 -16.811322,-9.989336 -0.120587,-0.215051 0.119412,-19.341742 0.245358,-19.5537 0.125946,-0.211957 16.810146,-9.567456 17.05668,-9.564363 0.246533,0.0031 16.690733,9.774285 16.811321,9.989336 0.120588,0.215051 -0.119412,19.341742 -0.245358,19.553699 z"
       transform="translate(37.910545,-28.546023)"
       clip-path="url(#clipPath17)" />
    <path
       sodipodi:type="star"
       style="opacity:0.531213;fill:#64a6ff;fill-opacity:1;stroke:#27488b;stroke-width:2.2;stroke-dasharray:none;stroke-opacity:1;paint-order:fill markers stroke"
       id="path2-2"
       inkscape:flatsided="true"
       sodipodi:sides="6"
       sodipodi:cx="80.645615"
       sodipodi:cy="75.529121"
       sodipodi:r1="19.555239"
       sodipodi:r2="16.935333"
       sodipodi:arg1="0.53614602"
       sodipodi:arg2="1.0597448"
       inkscape:rounded="0.012608012"
       inkscape:randomized="0"
       d="m 97.456936,85.518457 c -0.125946,0.211958 -16.810146,9.567457 -17.056679,9.564364 -0.246534,-0.0031 -16.690734,-9.774285 -16.811322,-9.989336 -0.120587,-0.215051 0.119412,-19.341742 0.245358,-19.5537 0.125946,-0.211957 16.810146,-9.567456 17.05668,-9.564363 0.246533,0.0031 16.690733,9.774285 16.811321,9.989336 0.120588,0.215051 -0.119412,19.341742 -0.245358,19.553699 z"
       transform="translate(18.245543,-61.518284)"
       clip-path="url(#clipPath16)" />
    <path
       sodipodi:type="star"
       style="opacity:0.531213;fill:#64a6ff;fill-opacity:1;stroke:#27488b;stroke-width:2.2;stroke-dasharray:none;stroke-opacity:1;paint-order:fill markers stroke"
       id="path2-16"
       inkscape:flatsided="true"
       sodipodi:sides="6"
       sodipodi:cx="80.645615"
       sodipodi:cy="75.529121"
       sodipodi:r1="19.555239"
       sodipodi:r2="16.935333"
       sodipodi:arg1="0.53614602"
       sodipodi:arg2="1.0597448"
       inkscape:rounded="0.012608012"
       inkscape:randomized="0"
       d="m 97.456936,85.518457 c -0.125946,0.211958 -16.810146,9.567457 -17.056679,9.564364 -0.246534,-0.0031 -16.690734,-9.774285 -16.811322,-9.989336 -0.120587,-0.215051 0.119412,-19.341742 0.245358,-19.5537 0.125946,-0.211957 16.810146,-9.567456 17.05668,-9.564363 0.246533,0.0031 16.690733,9.774285 16.811321,9.989336 0.120588,0.215051 -0.119412,19.341742 -0.245358,19.553699 z"
       transform="translate(-1.3267022,-28.546023)"
       clip-path="url(#clipPath15)" />
    <path
       sodipodi:type="star"
       style="opacity:0.531213;fill:#64a6ff;fill-opacity:1;stroke:#27488b;stroke-width:2.2;stroke-dasharray:none;stroke-opacity:1;paint-order:fill markers stroke"
       id="path2-6"
       inkscape:flatsided="true"
       sodipodi:sides="6"
       sodipodi:cx="80.645615"
       sodipodi:cy="75.529121"
       sodipodi:r1="19.555239"
       sodipodi:r2="16.935333"
       sodipodi:arg1="0.53614602"
       sodipodi:arg2="1.0597448"
       inkscape:rounded="0.012608012"
       inkscape:randomized="0"
       d="m 97.456936,85.518457 c -0.125946,0.211958 -16.810146,9.567457 -17.056679,9.564364 -0.246534,-0.0031 -16.690734,-9.774285 -16.811322,-9.989336 -0.120587,-0.215051 0.119412,-19.341742 0.245358,-19.5537 0.125946,-0.211957 16.810146,-9.567456 17.05668,-9.564363 0.246533,0.0031 16.690733,9.774285 16.811321,9.989336 0.120588,0.215051 -0.119412,19.341742 -0.245358,19.553699 z"
       transform="translate(-20.98397,-61.518284)"
       clip-path="url(#clipPath14)" />
    <path
       sodipodi:type="star"
       style="opacity:0.531213;fill:#64a6ff;fill-opacity:1;stroke:#27488b;stroke-width:2.2;stroke-dasharray:none;stroke-opacity:1;paint-order:fill markers stroke"
       id="path2-27"
       inkscape:flatsided="true"
       sodipodi:sides="6"
       sodipodi:cx="80.645615"
       sodipodi:cy="75.529121"
       sodipodi:r1="19.555239"
       sodipodi:r2="16.935333"
       sodipodi:arg1="0.53614602"
       sodipodi:arg2="1.0597448"
       inkscape:rounded="0.012608012"
       inkscape:randomized="0"
       d="m 97.456936,85.518457 c -0.125946,0.211958 -16.810146,9.567457 -17.056679,9.564364 -0.246534,-0.0031 -16.690734,-9.774285 -16.811322,-9.989336 -0.120587,-0.215051 0.119412,-19.341742 0.245358,-19.5537 0.125946,-0.211957 16.810146,-9.567456 17.05668,-9.564363 0.246533,0.0031 16.690733,9.774285 16.811321,9.989336 0.120588,0.215051 -0.119412,19.341742 -0.245358,19.553699 z"
       transform="translate(135.93408,-61.518284)"
       clip-path="url(#clipPath13)" />
    <path
       sodipodi:type="star"
       style="opacity:0.531213;fill:#64a6ff;fill-opacity:1;stroke:#27488b;stroke-width:2.2;stroke-dasharray:none;stroke-opacity:1;paint-order:fill markers stroke"
       id="path2-3"
       inkscape:flatsided="true"
       sodipodi:sides="6"
       sodipodi:cx="80.645615"
       sodipodi:cy="75.529121"
       sodipodi:r1="19.555239"
       sodipodi:r2="16.935333"
       sodipodi:arg1="0.53614602"
       sodipodi:arg2="1.0597448"
       inkscape:rounded="0.012608012"
       inkscape:randomized="0"
       d="m 97.456936,85.518457 c -0.125946,0.211958 -16.810146,9.567457 -17.056679,9.564364 -0.246534,-0.0031 -16.690734,-9.774285 -16.811322,-9.989336 -0.120587,-0.215051 0.119412,-19.341742 0.245358,-19.5537 0.125946,-0.211957 16.810146,-9.567456 17.05668,-9.564363 0.246533,0.0031 16.690733,9.774285 16.811321,9.989336 0.120588,0.215051 -0.119412,19.341742 -0.245358,19.553699 z"
       transform="translate(-60.213482,-61.518284)"
       clip-path="url(#clipPath12)" />
  </g>
</svg>
