<?xml version="1.0" encoding="UTF-8" standalone="no"?>
<!-- Created with Inkscape (http://www.inkscape.org/) -->

<svg
   width="210mm"
   height="297mm"
   viewBox="0 0 210 297"
   version="1.1"
   id="svg1"
   inkscape:version="1.4 (86a8ad7, 2024-10-11)"
   sodipodi:docname="footer_banner.svg"
   xmlns:inkscape="http://www.inkscape.org/namespaces/inkscape"
   xmlns:sodipodi="http://sodipodi.sourceforge.net/DTD/sodipodi-0.dtd"
   xmlns="http://www.w3.org/2000/svg"
   xmlns:svg="http://www.w3.org/2000/svg">
  <sodipodi:namedview
     id="namedview1"
     pagecolor="#505050"
     bordercolor="#eeeeee"
     borderopacity="1"
     inkscape:showpageshadow="0"
     inkscape:pageopacity="0"
     inkscape:pagecheckerboard="0"
     inkscape:deskcolor="#505050"
     inkscape:document-units="mm"
     inkscape:zoom="2.1718995"
     inkscape:cx="675.44562"
     inkscape:cy="996.59307"
     inkscape:window-width="2560"
     inkscape:window-height="1377"
     inkscape:window-x="1072"
     inkscape:window-y="-8"
     inkscape:window-maximized="1"
     inkscape:current-layer="layer1" />
  <defs
     id="defs1">
    <clipPath
       clipPathUnits="userSpaceOnUse"
       id="clipPath5">
      <rect
         style="fill:#303030;fill-opacity:1;stroke:#ffca31;stroke-width:1.88842;stroke-opacity:1;paint-order:fill markers stroke"
         id="rect5"
         width="21.356237"
         height="39.420593"
         x="-295.27612"
         y="-146.8831"
         transform="matrix(-0.80560441,-0.59245383,0.72956887,-0.68390735,0,0)" />
    </clipPath>
  </defs>
  <g
     inkscape:label="Layer 1"
     inkscape:groupmode="layer"
     id="layer1">
    <rect
       style="fill:#303030;fill-opacity:1;stroke:none;stroke-width:0.432642;stroke-dasharray:2.59585, 0.865285;paint-order:fill markers stroke"
       id="rect1"
       width="72.829361"
       height="6.7001643"
       x="137.17062"
       y="272.27029"
       ry="0"
       inkscape:export-filename="..\Images\footer_v4.png"
       inkscape:export-xdpi="199"
       inkscape:export-ydpi="199" />
    <g
       id="g1"
       style="display:none">
      <path
         sodipodi:type="star"
         style="fill:none;fill-opacity:1;stroke:#ffca31;stroke-width:1.341;stroke-dasharray:none;stroke-opacity:1;paint-order:fill markers stroke"
         id="path1"
         inkscape:flatsided="true"
         sodipodi:sides="6"
         sodipodi:cx="143.01805"
         sodipodi:cy="256.55536"
         sodipodi:r1="15.578827"
         sodipodi:r2="13.49166"
         sodipodi:arg1="0.21273178"
         sodipodi:arg2="0.73633056"
         inkscape:rounded="0.012608012"
         inkscape:randomized="0"
         d="m 158.2457,259.84453 c -0.0415,0.19199 -10.27533,11.48286 -10.46233,11.54294 -0.18701,0.0601 -15.08211,-3.15726 -15.22765,-3.28917 -0.14553,-0.13191 -4.80678,-14.64012 -4.76531,-14.83211 0.0415,-0.19199 10.27532,-11.48286 10.46232,-11.54295 0.18701,-0.0601 15.08212,3.15727 15.22765,3.28918 0.14553,0.13191 4.80679,14.64012 4.76532,14.83211 z"
         transform="rotate(-36.685726,174.39806,283.06826)" />
      <path
         sodipodi:type="star"
         style="fill:none;fill-opacity:1;stroke:#ffca31;stroke-width:1.341;stroke-dasharray:none;stroke-opacity:1;paint-order:fill markers stroke"
         id="path1-8"
         inkscape:flatsided="true"
         sodipodi:sides="6"
         sodipodi:cx="143.01805"
         sodipodi:cy="256.55536"
         sodipodi:r1="15.578827"
         sodipodi:r2="13.49166"
         sodipodi:arg1="0.21273178"
         sodipodi:arg2="0.73633056"
         inkscape:rounded="0.012608012"
         inkscape:randomized="0"
         d="m 158.2457,259.84453 c -0.0415,0.19199 -10.27533,11.48286 -10.46233,11.54294 -0.18701,0.0601 -15.08211,-3.15726 -15.22765,-3.28917 -0.14553,-0.13191 -4.80678,-14.64012 -4.76531,-14.83211 0.0415,-0.19199 10.27532,-11.48286 10.46232,-11.54295 0.18701,-0.0601 15.08212,3.15727 15.22765,3.28918 0.14553,0.13191 4.80679,14.64012 4.76532,14.83211 z"
         transform="rotate(5.005912,43.908515,232.80202)" />
      <path
         sodipodi:type="star"
         style="fill:none;fill-opacity:1;stroke:#ffca31;stroke-width:1.341;stroke-dasharray:none;stroke-opacity:1;paint-order:fill markers stroke"
         id="path1-5"
         inkscape:flatsided="true"
         sodipodi:sides="6"
         sodipodi:cx="143.01805"
         sodipodi:cy="256.55536"
         sodipodi:r1="15.578827"
         sodipodi:r2="13.49166"
         sodipodi:arg1="0.21273178"
         sodipodi:arg2="0.73633056"
         inkscape:rounded="0.012608012"
         inkscape:randomized="0"
         d="m 158.2457,259.84453 c -0.0415,0.19199 -10.27533,11.48286 -10.46233,11.54294 -0.18701,0.0601 -15.08211,-3.15726 -15.22765,-3.28917 -0.14553,-0.13191 -4.80678,-14.64012 -4.76531,-14.83211 0.0415,-0.19199 10.27532,-11.48286 10.46232,-11.54295 0.18701,-0.0601 15.08212,3.15727 15.22765,3.28918 0.14553,0.13191 4.80679,14.64012 4.76532,14.83211 z"
         transform="translate(10.296374,20.465956)" />
    </g>
    <path
       sodipodi:type="star"
       style="fill:none;fill-opacity:1;stroke:#ffca31;stroke-width:0.289365;stroke-dasharray:none;stroke-opacity:1;paint-order:fill markers stroke"
       id="path1-1"
       inkscape:flatsided="true"
       sodipodi:sides="6"
       sodipodi:cx="143.01805"
       sodipodi:cy="256.55536"
       sodipodi:r1="15.578827"
       sodipodi:r2="13.49166"
       sodipodi:arg1="0.21273178"
       sodipodi:arg2="0.73633056"
       inkscape:rounded="0.012608012"
       inkscape:randomized="0"
       d="m 158.2457,259.84453 c -0.0415,0.19199 -10.27533,11.48286 -10.46233,11.54294 -0.18701,0.0601 -15.08211,-3.15726 -15.22765,-3.28917 -0.14553,-0.13191 -4.80678,-14.64012 -4.76531,-14.83211 0.0415,-0.19199 10.27532,-11.48286 10.46232,-11.54295 0.18701,-0.0601 15.08212,3.15727 15.22765,3.28918 0.14553,0.13191 4.80679,14.64012 4.76532,14.83211 z"
       transform="rotate(25.239487,144.48205,367.14581)" />
    <path
       sodipodi:type="star"
       style="fill:none;fill-opacity:1;stroke:#ffca31;stroke-width:0.289365;stroke-dasharray:none;stroke-opacity:1;paint-order:fill markers stroke"
       id="path1-1-8"
       inkscape:flatsided="true"
       sodipodi:sides="6"
       sodipodi:cx="143.01805"
       sodipodi:cy="256.55536"
       sodipodi:r1="15.578827"
       sodipodi:r2="13.49166"
       sodipodi:arg1="0.21273178"
       sodipodi:arg2="0.73633056"
       inkscape:rounded="0.012608012"
       inkscape:randomized="0"
       d="m 158.2457,259.84453 c -0.0415,0.19199 -10.27533,11.48286 -10.46233,11.54294 -0.18701,0.0601 -15.08211,-3.15726 -15.22765,-3.28917 -0.14553,-0.13191 -4.80678,-14.64012 -4.76531,-14.83211 0.0415,-0.19199 10.27532,-11.48286 10.46232,-11.54295 0.18701,-0.0601 15.08212,3.15727 15.22765,3.28918 0.14553,0.13191 4.80679,14.64012 4.76532,14.83211 z"
       transform="rotate(1.1485818,-1579.1595,2244.6378)" />
    <path
       sodipodi:type="star"
       style="fill:none;fill-opacity:1;stroke:#ffca31;stroke-width:0.289365;stroke-dasharray:none;stroke-opacity:1;paint-order:fill markers stroke"
       id="path1-7"
       inkscape:flatsided="true"
       sodipodi:sides="6"
       sodipodi:cx="143.01805"
       sodipodi:cy="256.55536"
       sodipodi:r1="15.578827"
       sodipodi:r2="13.49166"
       sodipodi:arg1="0.21273178"
       sodipodi:arg2="0.73633056"
       inkscape:rounded="0.012608012"
       inkscape:randomized="0"
       d="m 158.2457,259.84453 c -0.0415,0.19199 -10.27533,11.48286 -10.46233,11.54294 -0.18701,0.0601 -15.08211,-3.15726 -15.22765,-3.28917 -0.14553,-0.13191 -4.80678,-14.64012 -4.76531,-14.83211 0.0415,-0.19199 10.27532,-11.48286 10.46232,-11.54295 0.18701,-0.0601 15.08212,3.15727 15.22765,3.28918 0.14553,0.13191 4.80679,14.64012 4.76532,14.83211 z"
       transform="rotate(53.38404,158.17232,299.24166)" />
    <path
       sodipodi:type="star"
       style="fill:none;fill-opacity:1;stroke:#ffca31;stroke-width:0.289365;stroke-dasharray:none;stroke-opacity:1;paint-order:fill markers stroke"
       id="path1-7-8"
       inkscape:flatsided="true"
       sodipodi:sides="6"
       sodipodi:cx="143.01805"
       sodipodi:cy="256.55536"
       sodipodi:r1="15.578827"
       sodipodi:r2="13.49166"
       sodipodi:arg1="0.21273178"
       sodipodi:arg2="0.73633056"
       inkscape:rounded="0.012608012"
       inkscape:randomized="0"
       d="m 158.2457,259.84453 c -0.0415,0.19199 -10.27533,11.48286 -10.46233,11.54294 -0.18701,0.0601 -15.08211,-3.15726 -15.22765,-3.28917 -0.14553,-0.13191 -4.80678,-14.64012 -4.76531,-14.83211 0.0415,-0.19199 10.27532,-11.48286 10.46232,-11.54295 0.18701,-0.0601 15.08212,3.15727 15.22765,3.28918 0.14553,0.13191 4.80679,14.64012 4.76532,14.83211 z"
       transform="rotate(-42.342416,186.58536,210.26649)" />
    <path
       sodipodi:type="star"
       style="fill:none;fill-opacity:1;stroke:#ffca31;stroke-width:0.28936462;stroke-dasharray:none;stroke-opacity:1;paint-order:fill markers stroke"
       id="path1-2"
       inkscape:flatsided="true"
       sodipodi:sides="6"
       sodipodi:cx="143.01805"
       sodipodi:cy="256.55536"
       sodipodi:r1="15.578827"
       sodipodi:r2="13.49166"
       sodipodi:arg1="0.21273178"
       sodipodi:arg2="0.73633056"
       inkscape:rounded="0.012608012"
       inkscape:randomized="0"
       d="m 158.2457,259.84453 c -0.0415,0.19199 -10.27533,11.48286 -10.46233,11.54294 -0.18701,0.0601 -15.08211,-3.15726 -15.22765,-3.28917 -0.14553,-0.13191 -4.80678,-14.64012 -4.76531,-14.83211 0.0415,-0.19199 10.27532,-11.48286 10.46232,-11.54295 0.18701,-0.0601 15.08212,3.15727 15.22765,3.28918 0.14553,0.13191 4.80679,14.64012 4.76532,14.83211 z"
       transform="translate(55.492217,19.396801)" />
    <path
       sodipodi:type="star"
       style="fill:none;fill-opacity:1;stroke:#ffca31;stroke-width:0.289365;stroke-dasharray:none;stroke-opacity:1;paint-order:fill markers stroke"
       id="path1-16"
       inkscape:flatsided="true"
       sodipodi:sides="6"
       sodipodi:cx="143.01805"
       sodipodi:cy="256.55536"
       sodipodi:r1="15.578827"
       sodipodi:r2="13.49166"
       sodipodi:arg1="0.21273178"
       sodipodi:arg2="0.73633056"
       inkscape:rounded="0.012608012"
       inkscape:randomized="0"
       d="m 158.2457,259.84453 c -0.0415,0.19199 -10.27533,11.48286 -10.46233,11.54294 -0.18701,0.0601 -15.08211,-3.15726 -15.22765,-3.28917 -0.14553,-0.13191 -4.80678,-14.64012 -4.76531,-14.83211 0.0415,-0.19199 10.27532,-11.48286 10.46232,-11.54295 0.18701,-0.0601 15.08212,3.15727 15.22765,3.28918 0.14553,0.13191 4.80679,14.64012 4.76532,14.83211 z"
       transform="translate(72.897528,20.781515)" />
    <g
       id="g4"
       transform="rotate(166.59875,168.71392,275.59867)"
       style="stroke-width:0.215783;stroke-dasharray:none">
      <path
         sodipodi:type="star"
         style="fill:none;fill-opacity:1;stroke:#ffca31;stroke-width:0.215783;stroke-dasharray:none;stroke-opacity:1;paint-order:fill markers stroke"
         id="path2"
         inkscape:flatsided="true"
         sodipodi:sides="6"
         sodipodi:cx="143.01805"
         sodipodi:cy="256.55536"
         sodipodi:r1="15.578827"
         sodipodi:r2="13.49166"
         sodipodi:arg1="0.21273178"
         sodipodi:arg2="0.73633056"
         inkscape:rounded="0.012608012"
         inkscape:randomized="0"
         d="m 158.2457,259.84453 c -0.0415,0.19199 -10.27533,11.48286 -10.46233,11.54294 -0.18701,0.0601 -15.08211,-3.15726 -15.22765,-3.28917 -0.14553,-0.13191 -4.80678,-14.64012 -4.76531,-14.83211 0.0415,-0.19199 10.27532,-11.48286 10.46232,-11.54295 0.18701,-0.0601 15.08212,3.15727 15.22765,3.28918 0.14553,0.13191 4.80679,14.64012 4.76532,14.83211 z"
         transform="rotate(-36.685726,174.39806,283.06826)" />
      <path
         sodipodi:type="star"
         style="fill:none;fill-opacity:1;stroke:#ffca31;stroke-width:0.215783;stroke-dasharray:none;stroke-opacity:1;paint-order:fill markers stroke"
         id="path3"
         inkscape:flatsided="true"
         sodipodi:sides="6"
         sodipodi:cx="143.01805"
         sodipodi:cy="256.55536"
         sodipodi:r1="15.578827"
         sodipodi:r2="13.49166"
         sodipodi:arg1="0.21273178"
         sodipodi:arg2="0.73633056"
         inkscape:rounded="0.012608012"
         inkscape:randomized="0"
         d="m 158.2457,259.84453 c -0.0415,0.19199 -10.27533,11.48286 -10.46233,11.54294 -0.18701,0.0601 -15.08211,-3.15726 -15.22765,-3.28917 -0.14553,-0.13191 -4.80678,-14.64012 -4.76531,-14.83211 0.0415,-0.19199 10.27532,-11.48286 10.46232,-11.54295 0.18701,-0.0601 15.08212,3.15727 15.22765,3.28918 0.14553,0.13191 4.80679,14.64012 4.76532,14.83211 z"
         transform="rotate(5.005912,43.908515,232.80202)" />
      <path
         sodipodi:type="star"
         style="display:inline;fill:none;fill-opacity:1;stroke:#ffca31;stroke-width:0.215783;stroke-dasharray:none;stroke-opacity:1;paint-order:fill markers stroke"
         id="path4"
         inkscape:flatsided="true"
         sodipodi:sides="6"
         sodipodi:cx="143.01805"
         sodipodi:cy="256.55536"
         sodipodi:r1="15.578827"
         sodipodi:r2="13.49166"
         sodipodi:arg1="0.21273178"
         sodipodi:arg2="0.73633056"
         inkscape:rounded="0.012608012"
         inkscape:randomized="0"
         d="m 158.2457,259.84453 c -0.0415,0.19199 -10.27533,11.48286 -10.46233,11.54294 -0.18701,0.0601 -15.08211,-3.15726 -15.22765,-3.28917 -0.14553,-0.13191 -4.80678,-14.64012 -4.76531,-14.83211 0.0415,-0.19199 10.27532,-11.48286 10.46232,-11.54295 0.18701,-0.0601 15.08212,3.15727 15.22765,3.28918 0.14553,0.13191 4.80679,14.64012 4.76532,14.83211 z"
         transform="translate(10.296374,20.465956)"
         clip-path="url(#clipPath5)" />
    </g>
  </g>
</svg>
